<svg width="100%" height="100%" viewBox="0 0 2513 2928" version="1.1" xmlns="http://www.w3.org/2000/svg" xmlns:xlink="http://www.w3.org/1999/xlink" xml:space="preserve" xmlns:serif="http://www.serif.com/" style="fill-rule:evenodd;clip-rule:evenodd;stroke-linejoin:round;stroke-miterlimit:2;"><path id="backgroundBottom" d="M1343.06,1563.36l1009.49,557.98c56.3,31.119 63.316,77.587 15.657,103.703l-1010.42,553.676c-47.659,26.116 -132.061,22.054 -188.361,-9.065l-1009.49,-557.98c-56.3,-31.12 -63.316,-77.587 -15.656,-103.703l1010.42,-553.676c47.659,-26.116 132.061,-22.054 188.362,9.065Z" style="fill:#acacac;fill-opacity:0.5;"/><path id="shadow" d="M416.256,2109.87l819.416,442.722l826.104,-451.814l-819.416,-442.723l-826.104,451.815Z" style="fill:#515151;fill-opacity:0.18;"/><path id="backgroundDark" d="M2399.82,836.084l-0,1083.21c-0,60.412 -37.058,88.381 -82.704,62.419l-947.003,-538.637c-45.646,-25.963 -82.704,-96.087 -82.704,-156.499l0,-1083.21c0,-60.412 37.058,-88.381 82.704,-62.419l947.003,538.638c45.646,25.962 82.704,96.087 82.704,156.499Z" style="fill:#bababa;fill-opacity:0.5;"/><path id="backgroundLight" d="M112.655,829.957l0,1088.96c0,60.732 37.255,88.85 83.142,62.75l923.296,-525.153c45.888,-26.1 83.142,-96.597 83.142,-157.329l0,-1088.96c0,-60.732 -37.254,-88.849 -83.142,-62.75l-923.296,525.153c-45.887,26.1 -83.142,96.597 -83.142,157.329Z" style="fill:#dadada;fill-opacity:0.5;"/><g id="cube"><path id="cubeRightDark" d="M1227.17,1452.6l-0,822.06l-725.574,-396.832l0,-822.059l725.574,396.831Z" style="fill:#d0d0d0;fill-opacity:0.75;"/><path id="cubeLeftLight" d="M1227.17,1444.76l-0,842.851l749.261,-409.787l0,-842.851l-749.261,409.787Z" style="fill:#fff;fill-opacity:0.75;"/><path id="cubeTopActive" d="M526.07,1020.92l699.805,378.097l728.358,-398.354l-699.805,-378.098l-728.358,398.355Z" style="fill:#fff;fill-opacity:0.75;"/></g><g id="ONYX" opacity="0.71"><path d="M1584.36,1777.48c0,7.418 -1.426,14.684 -4.277,21.798c-23.348,57.732 -55.161,122.525 -95.44,194.38c-5.703,10.434 -8.554,18.584 -8.554,24.449c-0,9.143 0.534,22.558 1.604,40.246c1.069,17.688 1.604,31.017 1.604,39.988c-0,3.105 -0.713,5.401 -2.139,6.888c-0.356,0.372 -2.762,2.148 -7.218,5.329c-6.416,4.622 -22.456,14.107 -48.121,28.455c-25.842,14.447 -42.328,23.146 -49.457,26.097c-4.99,2.099 -7.485,0.993 -7.485,-3.32c-0,-9.143 0.802,-23.521 2.406,-43.135c1.604,-19.613 2.406,-34.078 2.406,-43.393c-0,-5.521 -2.139,-10.276 -6.416,-14.268c-21.566,-17.442 -52.398,-45.402 -92.499,-83.879c-4.099,-4.436 -6.149,-8.81 -6.149,-13.123c0,-10.35 -0.534,-25.577 -1.604,-45.68c-1.069,-20.103 -1.604,-35.33 -1.604,-45.68c0,-5.693 1.783,-9.536 5.347,-11.528c10.872,-6.078 27.358,-14.863 49.457,-26.356c22.1,-11.492 38.675,-20.328 49.725,-26.505c4.099,-2.292 6.149,-2.144 6.149,0.444c-0,8.798 -0.401,22.262 -1.203,40.392c-0.802,18.131 -1.203,31.595 -1.203,40.393c-0,5.175 7.842,13.729 23.525,25.661c12.476,9.241 22.724,16.019 30.744,20.333c7.307,-12.365 17.02,-30.216 29.14,-53.552c15.327,-29.27 22.991,-46.061 22.991,-50.374c-0,-8.625 -0.669,-21.319 -2.005,-38.081c-1.337,-16.762 -2.005,-29.456 -2.005,-38.081c-0,-3.623 0.802,-6.141 2.406,-7.556c-0,0 2.227,-1.245 6.683,-3.736c10.694,-5.978 26.778,-15.445 48.254,-28.4c21.476,-12.955 37.65,-22.472 48.522,-28.549c3.564,-1.993 5.347,0.719 5.347,8.137c-0,9.143 0.178,22.801 0.534,40.974c0.357,18.172 0.535,31.916 0.535,41.232Z" style="fill-opacity:0.5;fill-rule:nonzero;"/><path d="M1912.37,1828.8c0,16.906 -0.802,27.359 -2.406,31.361c-1.96,4.891 -8.02,10.177 -18.179,15.856c-1.604,0.897 -5.168,2.89 -10.693,5.978c-5.347,2.817 -9.847,5.246 -13.501,7.289c-3.653,2.043 -9.089,4.909 -16.307,8.599c-7.218,3.691 -12.61,6.532 -16.174,8.525c-2.852,1.594 -15.684,-7.793 -38.497,-28.16c-22.812,-20.368 -34.664,-30.389 -35.555,-30.063c-3.743,5.025 -16.575,29.622 -38.497,73.791c-21.03,42.291 -33.328,64.95 -36.892,67.978c-2.495,2.085 -9.179,6.166 -20.05,12.244c-36.536,20.426 -54.804,28.827 -54.804,25.205c-0,-3.623 -0.223,-8.673 -0.669,-15.152c-0.445,-6.479 -0.668,-11.357 -0.668,-14.635c-0,-21.391 1.337,-34.731 4.01,-40.021c0.178,-0.272 14.882,-27.381 44.11,-81.328c23.704,-43.613 35.556,-67.576 35.556,-71.889c0,-4.313 -11.852,-14.765 -35.556,-31.357c-14.97,-10.089 -29.852,-20.313 -44.645,-30.674c-1.604,-1.346 -2.584,-4.507 -2.941,-9.483c-0.178,-3.523 -0.178,-8.439 0,-14.749c0.535,-7.717 0.803,-12.007 0.803,-12.869c-0,-3.45 -0.312,-8.624 -0.936,-15.52c-0.624,-6.897 -0.936,-12.07 -0.936,-15.52c0,-3.278 3.119,-6.66 9.357,-10.148c4.099,-2.291 10.159,-5.42 18.179,-9.386c8.02,-3.967 13.99,-7.046 17.911,-9.238c3.565,-1.992 8.822,-5.104 15.773,-9.335c6.951,-4.231 12.119,-7.293 15.506,-9.186c2.851,-1.594 15.817,7.933 38.897,28.583c23.08,20.649 35.155,30.675 36.224,30.078c3.565,-4.063 16.664,-28.982 39.299,-74.758c21.565,-43.97 33.952,-66.851 37.16,-68.645l63.626,-35.57c6.238,-3.488 9.357,-3.765 9.357,-0.832l-0,62.878c-0,4.486 -13.768,31.762 -41.304,81.83c-27.536,50.068 -41.303,76.137 -41.303,78.207c-0,2.933 12.119,13.149 36.357,30.65c28.516,20.457 43.398,31.199 44.646,32.227c2.495,2.4 3.742,14.813 3.742,37.239Z" style="fill-opacity:0.5;fill-rule:nonzero;"/><path d="M1600.65,1777.84c0,7.417 -1.425,14.684 -4.277,21.798c-23.347,57.732 -55.16,122.525 -95.439,194.38c-5.703,10.434 -8.555,18.584 -8.555,24.449c0,9.143 0.535,22.558 1.604,40.246c1.07,17.688 1.604,31.017 1.604,39.987c0,3.106 -0.713,5.402 -2.138,6.889c-0.357,0.372 -2.763,2.148 -7.219,5.329c-6.416,4.622 -22.456,14.107 -48.12,28.455c-25.843,14.447 -42.328,23.146 -49.457,26.097c-4.991,2.099 -7.486,0.993 -7.486,-3.32c0,-9.143 0.802,-23.521 2.406,-43.135c1.604,-19.613 2.406,-34.078 2.406,-43.393c0,-5.521 -2.139,-10.276 -6.416,-14.268c-21.565,-17.443 -52.398,-45.402 -92.498,-83.879c-4.1,-4.436 -6.149,-8.81 -6.149,-13.123c-0,-10.35 -0.535,-25.577 -1.604,-45.68c-1.069,-20.103 -1.604,-35.33 -1.604,-45.68c-0,-5.693 1.782,-9.536 5.347,-11.528c10.871,-6.078 27.357,-14.864 49.457,-26.356c22.1,-11.493 38.675,-20.328 49.724,-26.505c4.1,-2.292 6.149,-2.144 6.149,0.444c0,8.798 -0.401,22.262 -1.203,40.392c-0.802,18.13 -1.203,31.595 -1.203,40.392c0,5.176 7.842,13.73 23.526,25.662c12.476,9.241 22.723,16.019 30.744,20.333c7.307,-12.365 17.02,-30.216 29.139,-53.552c15.328,-29.27 22.991,-46.061 22.991,-50.374c0,-8.625 -0.668,-21.319 -2.005,-38.081c-1.337,-16.762 -2.005,-29.456 -2.005,-38.081c0,-3.623 0.802,-6.141 2.406,-7.556c0,0 2.228,-1.245 6.684,-3.736c10.693,-5.978 26.778,-15.445 48.254,-28.4c21.476,-12.955 37.65,-22.472 48.521,-28.55c3.565,-1.992 5.347,0.72 5.347,8.138c0,9.143 0.178,22.801 0.535,40.973c0.356,18.173 0.534,31.917 0.534,41.233Z" style="fill:#e2e2e2;fill-opacity:0.61;fill-rule:nonzero;"/><path d="M1928.66,1829.16c-0,16.906 -0.802,27.359 -2.406,31.361c-1.961,4.891 -8.02,10.177 -18.179,15.856c-1.604,0.897 -5.169,2.889 -10.694,5.978c-5.346,2.817 -9.847,5.246 -13.5,7.289c-3.654,2.043 -9.09,4.909 -16.308,8.599c-7.218,3.691 -12.609,6.532 -16.174,8.525c-2.851,1.594 -15.683,-7.793 -38.496,-28.16c-22.813,-20.368 -34.665,-30.389 -35.556,-30.064c-3.743,5.025 -16.575,29.623 -38.496,73.792c-21.031,42.291 -33.328,64.95 -36.893,67.978c-2.495,2.085 -9.178,6.166 -20.05,12.244c-36.536,20.426 -54.804,28.827 -54.804,25.205c-0,-3.623 -0.223,-8.674 -0.668,-15.152c-0.446,-6.479 -0.669,-11.357 -0.669,-14.635c0,-21.391 1.337,-34.731 4.01,-40.021c0.179,-0.272 14.882,-27.381 44.111,-81.328c23.704,-43.613 35.556,-67.576 35.556,-71.889c-0,-4.313 -11.852,-14.765 -35.556,-31.357c-14.971,-10.089 -29.853,-20.313 -44.645,-30.674c-1.604,-1.346 -2.585,-4.507 -2.941,-9.483c-0.178,-3.523 -0.178,-8.439 -0,-14.749c0.535,-7.717 0.802,-12.007 0.802,-12.869c-0,-3.45 -0.312,-8.624 -0.936,-15.52c-0.623,-6.897 -0.935,-12.07 -0.935,-15.52c-0,-3.278 3.119,-6.66 9.356,-10.148c4.1,-2.291 10.159,-5.42 18.179,-9.387c8.02,-3.966 13.991,-7.045 17.912,-9.237c3.564,-1.993 8.822,-5.104 15.773,-9.335c6.95,-4.231 12.119,-7.293 15.505,-9.186c2.852,-1.594 15.818,7.933 38.898,28.583c23.08,20.649 35.154,30.675 36.224,30.077c3.564,-4.062 16.664,-28.981 39.298,-74.757c21.565,-43.97 33.952,-66.851 37.16,-68.645l63.626,-35.571c6.238,-3.487 9.357,-3.764 9.357,-0.832l-0,62.879c-0,4.485 -13.768,31.762 -41.304,81.83c-27.535,50.068 -41.303,76.137 -41.303,78.207c-0,2.933 12.119,13.149 36.358,30.65c28.516,20.457 43.397,31.199 44.645,32.227c2.495,2.4 3.743,14.813 3.743,37.239Z" style="fill:#e2e2e2;fill-opacity:0.61;fill-rule:nonzero;"/><path d="M860.444,1479.61c-0,53.224 -15.149,89.489 -45.448,108.794c-30.907,19.482 -70.036,16.183 -117.386,-9.899c-47.046,-25.914 -86.099,-65.848 -117.158,-119.804c-30.451,-52.767 -45.676,-105.592 -45.676,-158.474c0,-53.054 15.225,-89.277 45.676,-108.669c31.059,-19.91 70.112,-16.908 117.158,9.006c46.741,25.746 85.718,65.723 116.93,119.933c30.602,53.363 45.904,106.401 45.904,159.113Zm-86.556,-48.188c0,-25.589 -6.927,-51.155 -20.782,-76.698c-14.464,-26.732 -32.963,-46.304 -55.496,-58.715c-21.468,-11.825 -39.662,-12.123 -54.583,-0.895c-14.464,10.798 -21.696,28.394 -21.696,52.789c0,26.1 6.776,51.582 20.326,76.446c14.312,26.136 32.963,45.536 55.953,58.199c21.467,11.825 39.738,12.25 54.811,1.276c14.311,-10.54 21.467,-28.008 21.467,-52.402Z" style="fill-opacity:0.37;fill-rule:nonzero;"/><path d="M1199.58,1494.45c-0,19.448 -0.723,48.263 -2.17,86.446c-1.446,38.183 -2.169,67.083 -2.169,86.701l-0,168.628c-0,4.606 -2.208,5.693 -6.623,3.261c-3.654,-2.013 -9.174,-4.882 -16.558,-8.608c-7.384,-3.727 -12.903,-6.596 -16.557,-8.609c-3.959,-2.18 -9.897,-5.792 -17.814,-10.835c-7.917,-5.044 -13.855,-8.655 -17.813,-10.836c-2.741,-1.509 -6.014,-6.127 -9.821,-13.853c-10.962,-22.586 -35.627,-72.848 -73.994,-150.788c-10.506,-21.651 -26.492,-53.828 -47.96,-96.529c-0.609,-1.359 -1.751,-3.012 -3.425,-4.958c-1.218,0.523 -1.827,2.064 -1.827,4.623c-0,19.789 0.494,49.744 1.484,89.866c0.99,40.122 1.485,70.077 1.485,89.865c-0,5.971 -2.056,7.824 -6.167,5.56l-79.019,-43.525c-4.415,-2.432 -6.623,-6.292 -6.623,-11.581c0,-18.423 0.8,-45.789 2.398,-82.097c1.599,-36.308 2.398,-63.759 2.398,-82.354c0,-19.617 -0.723,-49.357 -2.169,-89.219c-1.447,-39.862 -2.17,-69.516 -2.17,-88.963c0,-3.753 2.969,-3.995 8.907,-0.724c8.831,4.864 19.717,10.178 32.658,15.942c3.045,1.336 9.059,3.54 18.042,6.611c7.613,2.658 13.627,5.203 18.042,7.635c1.827,1.006 4.644,5.458 8.45,13.354l85.185,177.679c7.613,15.964 19.108,39.525 34.485,70.683c3.806,7.385 7.08,11.832 9.82,13.342c1.98,1.09 2.969,-5.018 2.969,-18.324c0,-17.912 -0.875,-45.347 -2.626,-82.306c-1.751,-36.959 -2.626,-64.479 -2.626,-82.562c-0,-6.312 1.598,-8.587 4.796,-6.826c9.135,5.032 22.914,12.195 41.336,21.489c18.423,9.295 32.201,16.458 41.337,21.49c2.892,1.593 4.339,5.034 4.339,10.322Z" style="fill-opacity:0.37;fill-rule:nonzero;"/><path d="M845.488,1491.79c0,53.224 -15.149,89.489 -45.447,108.794c-30.907,19.482 -70.036,16.183 -117.387,-9.899c-47.046,-25.914 -86.098,-65.848 -117.158,-119.804c-30.45,-52.767 -45.676,-105.592 -45.676,-158.474c0,-53.054 15.226,-89.277 45.676,-108.669c31.06,-19.91 70.112,-16.908 117.158,9.006c46.742,25.746 85.718,65.724 116.93,119.933c30.603,53.363 45.904,106.401 45.904,159.113Zm-86.555,-48.188c-0,-25.589 -6.928,-51.155 -20.783,-76.698c-14.464,-26.732 -32.962,-46.304 -55.496,-58.715c-21.467,-11.825 -39.661,-12.123 -54.582,-0.895c-14.464,10.798 -21.696,28.394 -21.696,52.789c-0,26.1 6.775,51.582 20.326,76.446c14.311,26.136 32.962,45.536 55.952,58.199c21.468,11.825 39.738,12.25 54.811,1.276c14.312,-10.54 21.468,-28.008 21.468,-52.402Z" style="fill:#c9c9c9;fill-opacity:0.5;fill-rule:nonzero;"/><path d="M1184.62,1506.63c0,19.448 -0.723,48.263 -2.169,86.446c-1.447,38.183 -2.17,67.083 -2.17,86.701l0,168.628c0,4.606 -2.208,5.693 -6.623,3.261c-3.654,-2.013 -9.173,-4.882 -16.557,-8.608c-7.385,-3.727 -12.904,-6.596 -16.558,-8.609c-3.958,-2.18 -9.896,-5.792 -17.813,-10.835c-7.917,-5.043 -13.855,-8.655 -17.814,-10.836c-2.74,-1.509 -6.014,-6.127 -9.82,-13.853c-10.962,-22.585 -35.627,-72.848 -73.995,-150.788c-10.505,-21.651 -26.492,-53.828 -47.959,-96.529c-0.609,-1.359 -1.751,-3.012 -3.426,-4.958c-1.218,0.523 -1.827,2.064 -1.827,4.623c0,19.789 0.495,49.744 1.485,89.866c0.989,40.122 1.484,70.077 1.484,89.865c0,5.971 -2.055,7.824 -6.166,5.56l-79.019,-43.525c-4.415,-2.432 -6.623,-6.292 -6.623,-11.581c-0,-18.423 0.799,-45.789 2.398,-82.097c1.598,-36.308 2.398,-63.759 2.398,-82.354c-0,-19.617 -0.723,-49.357 -2.17,-89.219c-1.446,-39.862 -2.169,-69.516 -2.169,-88.963c-0,-3.753 2.969,-3.994 8.906,-0.724c8.831,4.864 19.717,10.178 32.659,15.942c3.045,1.336 9.059,3.54 18.041,6.611c7.613,2.658 13.627,5.203 18.042,7.635c1.827,1.006 4.644,5.458 8.45,13.354l85.185,177.679c7.613,15.964 19.108,39.525 34.486,70.683c3.806,7.385 7.079,11.833 9.82,13.342c1.979,1.09 2.969,-5.018 2.969,-18.324c-0,-17.912 -0.876,-45.347 -2.627,-82.306c-1.75,-36.959 -2.626,-64.479 -2.626,-82.562c0,-6.312 1.599,-8.587 4.796,-6.826c9.135,5.032 22.914,12.195 41.337,21.49c18.422,9.294 32.201,16.457 41.336,21.489c2.893,1.593 4.339,5.034 4.339,10.322Z" style="fill:#c9c9c9;fill-opacity:0.5;fill-rule:nonzero;"/></g></svg>